<svg width="120" height="24" viewBox="0 0 120 24" fill="none" xmlns="http://www.w3.org/2000/svg">
<path d="M29.0568 5.2529H31.8961V16.0711H37.1585V18.5128H29.0568V5.2529Z" fill="#2E343F"/>
<path d="M38.4367 16.2605C38.002 15.4595 37.7831 14.5592 37.8016 13.6481C37.7831 12.7369 38.002 11.8366 38.4367 11.0356C38.85 10.2871 39.4759 9.67797 40.2353 9.28503C41.0768 8.87933 41.9989 8.66864 42.9331 8.66864C43.8673 8.66864 44.7895 8.87933 45.631 9.28503C46.3892 9.67953 47.0147 10.2883 47.4296 11.0356C47.8622 11.8373 48.0801 12.7373 48.062 13.6481C48.0823 14.5625 47.8643 15.4665 47.4296 16.2712C47.0119 17.0137 46.3869 17.6183 45.631 18.0111C44.7895 18.4168 43.8673 18.6275 42.9331 18.6275C41.9989 18.6275 41.0768 18.4168 40.2353 18.0111C39.4759 17.6182 38.85 17.009 38.4367 16.2605ZM45.3562 13.6481C45.3862 12.9149 45.1502 12.1956 44.6917 11.6227C44.4759 11.37 44.2054 11.1697 43.9007 11.037C43.596 10.9044 43.2652 10.8427 42.9331 10.8568C42.6014 10.8434 42.271 10.9065 41.9674 11.0412C41.6639 11.1758 41.3954 11.3784 41.1826 11.6333C40.7268 12.2071 40.4945 12.9267 40.5288 13.6587C40.4945 14.3907 40.7268 15.1103 41.1826 15.6841C41.3954 15.9391 41.6639 16.1417 41.9674 16.2763C42.271 16.4109 42.6014 16.474 42.9331 16.4607C43.2669 16.4722 43.5988 16.4072 43.9036 16.2708C44.2084 16.1343 44.478 15.93 44.6917 15.6735C45.1502 15.1006 45.3862 14.3812 45.3562 13.6481Z" fill="#2E343F"/>
<path d="M49.7939 16.2606C49.3592 15.4595 49.1403 14.5592 49.1588 13.6481C49.1403 12.7369 49.3592 11.8366 49.7939 11.0356C50.2072 10.2871 50.8331 9.67799 51.5925 9.28504C52.4335 8.87938 53.3552 8.6687 54.289 8.6687C55.2228 8.6687 56.1445 8.87938 56.9855 9.28504C57.7449 9.67799 58.3708 10.2871 58.7841 11.0356C59.2188 11.8366 59.4377 12.7369 59.4192 13.6481C59.4399 14.5629 59.221 15.4672 58.7841 16.2712C58.368 17.0148 57.7426 17.6198 56.9855 18.0111C56.1445 18.4168 55.2228 18.6274 54.289 18.6274C53.3552 18.6274 52.4335 18.4168 51.5925 18.0111C50.8331 17.6182 50.2072 17.009 49.7939 16.2606ZM56.7134 13.6481C56.7464 12.9162 56.5143 12.1971 56.0596 11.6227C55.836 11.378 55.564 11.1826 55.2607 11.0489C54.9575 10.9152 54.6297 10.8462 54.2984 10.8462C53.967 10.8462 53.6392 10.9152 53.336 11.0489C53.0327 11.1826 52.7607 11.378 52.5371 11.6227C52.0872 12.1989 51.8599 12.9179 51.8967 13.6481C51.8629 14.3796 52.0941 15.0987 52.5478 15.6735C52.7713 15.9181 53.0434 16.1135 53.3466 16.2472C53.6499 16.3809 53.9776 16.45 54.309 16.45C54.6404 16.45 54.9682 16.3809 55.2714 16.2472C55.5747 16.1135 55.8467 15.9181 56.0703 15.6735C56.5211 15.0976 56.7494 14.3786 56.7134 13.6481Z" fill="#2E343F"/>
<path d="M63.5634 5.2529V12.9276L67.3874 8.78336H70.3789L66.9098 12.5887L70.5763 18.5128H67.4835L65.0231 14.5767L63.5634 16.1458V18.5128H60.8949V5.2529H63.5634Z" fill="#2E343F"/>
<path d="M73.8613 16.3166C74.2921 16.6025 74.8016 16.7462 75.3183 16.7275C75.7784 16.7513 76.237 16.6595 76.6526 16.4607C76.8057 16.3914 76.935 16.2785 77.0242 16.1361C77.1134 15.9937 77.1587 15.8281 77.1542 15.6601C77.1624 15.5544 77.1462 15.4481 77.1069 15.3496C77.0676 15.251 77.0062 15.1628 76.9274 15.0917C76.7376 14.9525 76.517 14.861 76.2843 14.8249C76.0175 14.7689 75.5531 14.7021 74.9207 14.6274C74.1985 14.5407 73.4845 14.3952 72.7859 14.1925C72.2647 14.0426 71.7937 13.755 71.4223 13.3599C71.0656 12.9378 70.8824 12.3961 70.9099 11.8442C70.903 11.2427 71.0901 10.655 71.4436 10.1683C71.8161 9.66238 72.3239 9.27201 72.9086 9.04221C73.6008 8.76621 74.3411 8.63104 75.0861 8.6446C76.4115 8.65705 77.4789 8.9408 78.2884 9.49586C78.6771 9.7471 78.9996 10.0883 79.2286 10.4905C79.4576 10.8928 79.5863 11.3443 79.6039 11.8068H77.0689C77.0485 11.6226 76.9859 11.4457 76.8859 11.2897C76.7859 11.1337 76.6513 11.0029 76.4925 10.9075C76.0929 10.6597 75.628 10.5379 75.1582 10.5579C74.7334 10.5382 74.3114 10.6361 73.9387 10.8408C73.7996 10.9128 73.6828 11.0215 73.6009 11.155C73.5191 11.2886 73.4753 11.442 73.4743 11.5987C73.4683 11.6975 73.4876 11.7963 73.5306 11.8855C73.5736 11.9748 73.6388 12.0515 73.7199 12.1083C73.9146 12.2349 74.1337 12.3194 74.363 12.3565C74.6298 12.4045 75.0701 12.4633 75.6972 12.5246C77.0101 12.6776 78.0171 12.9587 78.718 13.3679C79.4172 13.7788 79.7667 14.4807 79.7667 15.4787C79.7759 16.0811 79.5792 16.6685 79.209 17.1438C78.8026 17.6484 78.2654 18.0315 77.6559 18.2513C76.9202 18.5236 76.14 18.6557 75.3557 18.6409C74.0054 18.6409 72.9077 18.3411 72.0627 17.7416C71.661 17.4687 71.3303 17.1038 71.0982 16.6772C70.8661 16.2506 70.7393 15.7747 70.7284 15.2892H73.2449C73.263 15.496 73.3279 15.6959 73.4347 15.8739C73.5415 16.0519 73.6874 16.2033 73.8613 16.3166Z" fill="#2E343F"/>
<path d="M85.9177 18.6275C84.9966 18.6484 84.0851 18.4363 83.2678 18.0111C82.5242 17.6133 81.9151 17.0042 81.5173 16.2606C81.0969 15.455 80.8858 14.5566 80.9035 13.6481C80.8833 12.7367 81.0945 11.8352 81.5173 11.0276C81.9192 10.2854 82.5321 9.67905 83.2785 9.28505C84.1021 8.85882 85.0199 8.64682 85.947 8.66862C87.2475 8.66862 88.3069 9.0004 89.1252 9.66398C89.9623 10.3558 90.5043 11.3406 90.6409 12.4179H87.8683C87.7763 11.9708 87.5366 11.5676 87.1879 11.2731C86.8299 10.9821 86.3787 10.8304 85.9177 10.8461C85.5986 10.8354 85.2814 10.9001 84.9921 11.035C84.7027 11.17 84.4493 11.3713 84.2525 11.6227C83.8154 12.2048 83.5946 12.9209 83.6281 13.6481C83.5946 14.3753 83.8154 15.0914 84.2525 15.6735C84.4482 15.9268 84.7011 16.1302 84.9906 16.267C85.28 16.4038 85.5977 16.4702 85.9177 16.4607C86.3883 16.4772 86.849 16.3227 87.2146 16.0257C87.5709 15.7187 87.8088 15.2968 87.887 14.8329H90.6329C90.5082 15.922 89.9693 16.9215 89.1279 17.6242C88.3006 18.2931 87.2306 18.6275 85.9177 18.6275Z" fill="#2E343F"/>
<path d="M92.1913 16.2606C91.7567 15.4595 91.5378 14.5592 91.5562 13.6481C91.5378 12.7369 91.7567 11.8366 92.1913 11.0356C92.6047 10.2871 93.2306 9.67799 93.9899 9.28504C94.831 8.87938 95.7527 8.6687 96.6865 8.6687C97.6202 8.6687 98.542 8.87938 99.383 9.28504C100.142 9.67799 100.768 10.2871 101.182 11.0356C101.616 11.8366 101.835 12.7369 101.817 13.6481C101.837 14.5629 101.618 15.4672 101.182 16.2712C100.769 17.0129 100.148 17.6177 99.3963 18.0111C98.5553 18.4168 97.6336 18.6274 96.6998 18.6274C95.766 18.6274 94.8443 18.4168 94.0033 18.0111C93.239 17.6203 92.6082 17.0109 92.1913 16.2606ZM99.1108 13.6481C99.1439 12.9162 98.9117 12.1971 98.457 11.6227C98.2335 11.378 97.9614 11.1826 97.6582 11.0489C97.355 10.9152 97.0272 10.8462 96.6958 10.8462C96.3644 10.8462 96.0367 10.9152 95.7334 11.0489C95.4302 11.1826 95.1581 11.378 94.9346 11.6227C94.4808 12.1974 94.2497 12.9166 94.2835 13.6481C94.2497 14.3796 94.4808 15.0987 94.9346 15.6735C95.1581 15.9181 95.4302 16.1135 95.7334 16.2472C96.0367 16.3809 96.3644 16.45 96.6958 16.45C97.0272 16.45 97.355 16.3809 97.6582 16.2472C97.9614 16.1135 98.2335 15.9181 98.457 15.6735C98.9127 15.0995 99.1458 14.3802 99.1135 13.6481H99.1108Z" fill="#2E343F"/>
<path d="M112.456 18.5128H110.092L109.844 17.3386C109.502 17.7627 109.065 18.1004 108.569 18.3244C108.072 18.5483 107.53 18.6521 106.986 18.6275C106.475 18.647 105.965 18.5641 105.486 18.3835C105.008 18.2029 104.57 17.9284 104.2 17.5761C103.488 16.877 103.132 15.7064 103.132 14.0644V8.78335H105.801V13.7415C105.801 14.6274 105.956 15.2919 106.265 15.7402C106.426 15.9653 106.642 16.1453 106.893 16.2631C107.143 16.3808 107.419 16.4323 107.695 16.4127C107.996 16.4262 108.294 16.365 108.565 16.2346C108.835 16.1042 109.069 15.9086 109.246 15.6655C109.614 15.1665 109.796 14.4673 109.796 13.5733V8.78335H112.464L112.456 18.5128Z" fill="#2E343F"/>
<path d="M113.403 11.0356V8.78336H115.005V6.05346H117.673V8.78336H119.888V11.0356H117.673V15.3052C117.649 15.5701 117.726 15.8342 117.889 16.0444C117.99 16.1291 118.106 16.1928 118.232 16.2318C118.357 16.2707 118.49 16.2841 118.62 16.2712H120V18.5235H117.809C115.952 18.5235 115.024 17.5957 115.026 15.7402V11.0356H113.403Z" fill="#2E343F"/>
<path d="M13.8564 3.1998L0 11.1998V6.3998L9.70256 0.799805L13.8564 3.1998Z" fill="#2E343F"/>
<path d="M19.4051 6.3998V9.16903L2.4 18.9844L0 17.5998V14.9947L17.1385 5.09724L19.4051 6.3998Z" fill="#2E343F"/>
<path d="M5.68205 20.8819L19.4051 12.9639V17.5998L9.70256 23.1998L5.68205 20.8819Z" fill="#2E343F"/>
</svg>
