<svg width="29" height="28" viewBox="0 0 29 28" fill="none" xmlns="http://www.w3.org/2000/svg">
<g clip-path="url(#clip0_3_17161)">
<path d="M2.83331 8.16699H26.1665C26.1656 7.01392 26.151 6.40951 25.9123 5.94101C25.6886 5.50197 25.3316 5.14501 24.8926 4.92131C24.3934 4.66699 23.74 4.66699 22.4333 4.66699H6.56659C5.2598 4.66699 4.6064 4.66699 4.10727 4.92131C3.66823 5.14501 3.31127 5.50197 3.08757 5.94101C2.84886 6.40951 2.83421 7.01392 2.83331 8.16699Z" fill="#437EF7"/>
<path fill-rule="evenodd" clip-rule="evenodd" d="M26.1666 10.5003H2.83325V19.6003C2.83325 20.9071 2.83325 21.5605 3.08757 22.0596C3.31127 22.4987 3.66823 22.8556 4.10727 23.0793C4.6064 23.3337 5.2598 23.3337 6.56659 23.3337H22.4333C23.74 23.3337 24.3934 23.3337 24.8926 23.0793C25.3316 22.8556 25.6886 22.4987 25.9123 22.0596C26.1666 21.5605 26.1666 20.9071 26.1666 19.6003V10.5003ZM6.33325 18.667C6.33325 18.0227 6.85559 17.5003 7.49992 17.5003H12.1666C12.8109 17.5003 13.3333 18.0227 13.3333 18.667C13.3333 19.3113 12.8109 19.8337 12.1666 19.8337H7.49992C6.85559 19.8337 6.33325 19.3113 6.33325 18.667ZM16.8333 17.5003C16.1889 17.5003 15.6666 18.0227 15.6666 18.667C15.6666 19.3113 16.1889 19.8337 16.8333 19.8337H21.4999C22.1442 19.8337 22.6666 19.3113 22.6666 18.667C22.6666 18.0227 22.1442 17.5003 21.4999 17.5003H16.8333Z" fill="#437EF7"/>
</g>
<defs>
<clipPath id="clip0_3_17161">
<rect width="28" height="28" fill="white" transform="translate(0.5 0.000244141)"/>
</clipPath>
</defs>
</svg>
