<svg width="141" height="29" viewBox="0 0 141 29" fill="none" xmlns="http://www.w3.org/2000/svg">
<path d="M16.4426 3.99132L18.3694 8.05802C18.6853 8.72375 19.295 9.18515 20.0006 9.29202L24.3097 9.94423C26.0863 10.213 26.7957 12.4867 25.51 13.7919L22.391 16.9569C21.8806 17.4752 21.6476 18.222 21.7681 18.9538L22.5041 23.4234C22.8079 25.2663 20.9504 26.6713 19.3618 25.8015L15.5076 23.6924C14.8766 23.3467 14.1226 23.3467 13.4915 23.6924L9.63723 25.8029C8.04867 26.6727 6.19114 25.2661 6.49495 23.4248L7.23096 18.9552C7.35198 18.2229 7.11885 17.4756 6.60807 16.9569L3.48983 13.7915C2.20409 12.4863 2.91358 10.2127 4.69016 9.94387L8.99927 9.29166C9.70484 9.18478 10.3146 8.72334 10.6304 8.05766L12.5564 3.99138C13.3519 2.31411 15.6472 2.31405 16.4426 3.99132Z" fill="#FFAE43"/>
<path d="M44.4426 3.99132L46.3694 8.05802C46.6853 8.72375 47.295 9.18515 48.0006 9.29202L52.3097 9.94423C54.0863 10.213 54.7957 12.4867 53.51 13.7919L50.391 16.9569C49.8806 17.4752 49.6476 18.222 49.7681 18.9538L50.5041 23.4234C50.8079 25.2663 48.9504 26.6713 47.3618 25.8015L43.5076 23.6924C42.8766 23.3467 42.1226 23.3467 41.4915 23.6924L37.6372 25.8029C36.0487 26.6727 34.1911 25.2661 34.495 23.4248L35.231 18.9552C35.352 18.2229 35.1189 17.4756 34.6081 16.9569L31.4898 13.7915C30.2041 12.4863 30.9136 10.2127 32.6902 9.94387L36.9993 9.29166C37.7048 9.18478 38.3146 8.72334 38.6304 8.05766L40.5564 3.99138C41.3519 2.31411 43.6472 2.31405 44.4426 3.99132Z" fill="#FFAE43"/>
<path d="M72.4426 3.99132L74.3694 8.05802C74.6853 8.72375 75.295 9.18515 76.0006 9.29202L80.3097 9.94423C82.0863 10.213 82.7957 12.4867 81.51 13.7919L78.391 16.9569C77.8806 17.4752 77.6476 18.222 77.7681 18.9538L78.5041 23.4234C78.8079 25.2663 76.9504 26.6713 75.3618 25.8015L71.5076 23.6924C70.8766 23.3467 70.1226 23.3467 69.4915 23.6924L65.6372 25.8029C64.0487 26.6727 62.1911 25.2661 62.495 23.4248L63.231 18.9552C63.352 18.2229 63.1189 17.4756 62.6081 16.9569L59.4898 13.7915C58.2041 12.4863 58.9136 10.2127 60.6902 9.94387L64.9993 9.29166C65.7048 9.18478 66.3146 8.72334 66.6304 8.05766L68.5564 3.99138C69.3519 2.31411 71.6472 2.31405 72.4426 3.99132Z" fill="#FFAE43"/>
<path d="M100.443 3.99132L102.369 8.05802C102.685 8.72375 103.295 9.18515 104.001 9.29202L108.31 9.94423C110.086 10.213 110.796 12.4867 109.51 13.7919L106.391 16.9569C105.881 17.4752 105.648 18.222 105.768 18.9538L106.504 23.4234C106.808 25.2663 104.95 26.6713 103.362 25.8015L99.5076 23.6924C98.8766 23.3467 98.1226 23.3467 97.4915 23.6924L93.6372 25.8029C92.0487 26.6727 90.1911 25.2661 90.495 23.4248L91.231 18.9552C91.352 18.2229 91.1189 17.4756 90.6081 16.9569L87.4898 13.7915C86.2041 12.4863 86.9136 10.2127 88.6902 9.94387L92.9993 9.29166C93.7048 9.18478 94.3146 8.72334 94.6304 8.05766L96.5564 3.99138C97.3519 2.31411 99.6472 2.31405 100.443 3.99132Z" fill="#FFAE43"/>
<path d="M128.443 3.99132L130.369 8.05802C130.685 8.72375 131.295 9.18515 132.001 9.29202L136.31 9.94423C138.086 10.213 138.796 12.4867 137.51 13.7919L134.391 16.9569C133.881 17.4752 133.648 18.222 133.768 18.9538L134.504 23.4234C134.808 25.2663 132.95 26.6713 131.362 25.8015L127.508 23.6924C126.877 23.3467 126.123 23.3467 125.491 23.6924L121.637 25.8029C120.049 26.6727 118.191 25.2661 118.495 23.4248L119.231 18.9552C119.352 18.2229 119.119 17.4756 118.608 16.9569L115.49 13.7915C114.204 12.4863 114.914 10.2127 116.69 9.94387L120.999 9.29166C121.705 9.18478 122.315 8.72334 122.63 8.05766L124.556 3.99138C125.352 2.31411 127.647 2.31405 128.443 3.99132Z" fill="#DAE0E6"/>
</svg>
