<svg width="48" height="48" viewBox="0 0 48 48" fill="none" xmlns="http://www.w3.org/2000/svg">
<rect width="48" height="48" rx="24" fill="#F5FAFF"/>
<path d="M27.8978 17.4507L25.1479 12.6638C24.6373 11.775 23.3565 11.7707 22.8401 12.6561L19.9383 17.6306C19.5539 18.2895 18.9058 18.7523 18.1578 18.9019L14.1929 19.6948C13.166 19.9002 12.7658 21.155 13.4842 21.917L16.352 24.9585C16.9652 25.6089 17.2118 26.5233 17.0087 27.3939L15.7106 32.9569C15.4438 34.1005 16.6786 35.0056 17.6888 34.4069L22.6411 31.4722C23.4794 30.9755 24.5218 30.9755 25.3601 31.4722L30.3124 34.4069C31.3226 35.0056 32.5574 34.1005 32.2906 32.9569L30.9811 27.3451C30.7843 26.5016 31.0095 25.615 31.585 24.9676L34.4563 21.7373C35.1404 20.9677 34.731 19.746 33.7212 19.5441L29.6871 18.7373C28.9331 18.5865 28.2809 18.1175 27.8978 17.4507Z" stroke="#437EF7" stroke-width="2" stroke-miterlimit="10"/>
</svg>
